# xmcd CD database file
#
# Track frame offsets:
#	150
#	21137
#	39621
#	52554
#	65075
#	83301
#	100460
#	115242
#	126773
#	147607
#	170397
#	192851
#	201795
#	221684
#	239911
#	253645
#	273930
#	286347
#
# Disc length: 3972 seconds
#
# Revision: 0
# Processed by: cddbd v1.5.2PL0 Copyright (c) Steve Scherf et al.
# Submitted via: CDex 1.70beta2
#
DISCID=0b0f8212
DTITLE=Humphrey Littleton - Cornucopia
DYEAR=2007
DGENRE=Jazz
TTITLE0=A Good Buzz
TTITLE1=Willow Weep For Me
TTITLE2=Go, Jo!
TTITLE3=Portugese Folk Song
TTITLE4=Snow Time
TTITLE5=Echos Of The Duke
TTITLE6=Wicker Woman
TTITLE7=Sea-Lion's Siesta
TTITLE8=M25
TTITLE9=Blues In Thirds
TTITLE10=Makin' Whoopee
TTITLE11=You Must Have Been A Beutiful Baby
TTITLE12=Walk The Walk
TTITLE13=Trouble In Mind
TTITLE14=None Doomy
TTITLE15=Real Heavy
TTITLE16=D'You Think We Should?
TTITLE17=Summertime
EXTD=YEAR: 2007
EXTT0=
EXTT1=
EXTT2=
EXTT3=
EXTT4=
EXTT5=
EXTT6=
EXTT7=
EXTT8=
EXTT9=
EXTT10=
EXTT11=
EXTT12=
EXTT13=
EXTT14=
EXTT15=
EXTT16=
EXTT17=
PLAYORDER=
